<svg width="64" height="64" viewBox="0 0 64 64" fill="none" xmlns="http://www.w3.org/2000/svg">
<path fill-rule="evenodd" clip-rule="evenodd" d="M55.4662 3.2H62.9328C63.5219 3.2 63.9995 3.6776 63.9995 4.26667V8.53333C63.9995 9.12292 63.5219 9.6 62.9328 9.6H55.4662V10.6667C55.4662 11.2563 54.9886 11.7333 54.3996 11.7333H52.2662V61.8667H54.1647C53.4141 61.0474 53.1475 59.8943 53.4621 58.8281C53.7761 57.7625 54.6256 56.9385 55.7011 56.6573C55.1589 55.3203 55.5777 53.7865 56.7245 52.9109C57.8709 52.0354 59.4615 52.0354 60.6078 52.9109C61.7547 53.7865 62.1734 55.3203 61.6313 56.6573C62.7068 56.9385 63.5562 57.7625 63.8703 58.8281C64.1849 59.8943 63.9182 61.0474 63.1677 61.8667H63.9995V64H0V61.8667H0.624995L5.64579 56.8464C6.06245 56.4297 6.73744 56.4297 7.15411 56.8464L12.1749 61.8667H13.8666V13.8667H15.9999V18.1333H29.8664V20.2667H15.9999V23.4667H22.3998V22.4H24.5331V23.4667H30.9331V21.3333H33.0664V23.4667H39.4663V19.2H41.5997V61.8667H45.8663V11.7333H43.733C43.1439 11.7333 42.6663 11.2563 42.6663 10.6667V9.6H6.39995V28.9828C7.40515 29.3333 8.16868 30.1635 8.43326 31.1948C8.69837 32.226 8.42962 33.3219 7.71712 34.1135L10.453 37.7604L10.4395 37.7708C10.5822 37.95 10.6619 38.1714 10.6666 38.4V42.6667C10.6666 42.95 10.5541 43.2208 10.3541 43.4208L8.22077 45.5542C8.02077 45.7542 7.74942 45.8667 7.46661 45.8667H3.19997C2.91716 45.8667 2.64581 45.7542 2.44581 45.5542L0.312497 43.4208C0.112499 43.2208 0 42.95 0 42.6667V38.4C0.00468746 38.1714 0.0843742 37.95 0.227081 37.7708L0.21354 37.7604L2.94946 34.1135C2.42654 33.5333 2.13644 32.7807 2.13332 32H4.26663C4.26663 32.5896 4.74423 33.0667 5.33329 33.0667C5.92235 33.0667 6.39995 32.5896 6.39995 32C6.39995 31.4109 5.92235 30.9333 5.33329 30.9333C4.74423 30.9333 4.26663 30.4562 4.26663 29.8667V9.6H1.06666C0.4776 9.6 0 9.12292 0 8.53333V4.26667C0 3.6776 0.4776 3.2 1.06666 3.2H42.6663V1.06667C42.6663 0.477604 43.1439 0 43.733 0H54.3996C54.9886 0 55.4662 0.477604 55.4662 1.06667V3.2ZM7.46661 37.3333L5.86662 35.2H4.79996L3.19997 37.3333H7.46661ZM8.53326 42.2255L7.02494 43.7333H3.64164L2.13332 42.2255V39.4667H8.53326V42.2255ZM55.4662 7.25365L58.3464 5.33333H55.4662V7.25365ZM44.7996 2.13333H49.0663V6.4H44.7996V2.13333ZM18.8801 7.46667L15.9999 5.54688L13.1197 7.46667H18.8801ZM9.59992 7.25365L6.71974 5.33333H12.4801L9.59992 7.25365ZM22.3998 7.25365L25.28 5.33333H19.5196L22.3998 7.25365ZM28.7998 5.54688L31.6799 7.46667H25.9196L28.7998 5.54688ZM35.1997 7.25365L38.0799 5.33333H32.3195L35.1997 7.25365ZM2.13332 5.33333H2.88018L6.08016 7.46667H2.13332V5.33333ZM41.9194 5.33333L38.7195 7.46667H42.6663V5.33333H41.9194ZM50.1329 58.3469L48.2131 55.4667L50.1329 52.587V58.3469ZM48.2131 29.8667L50.1329 32.7469V26.987L48.2131 29.8667ZM47.9996 33.387L49.9194 36.2667L47.9996 39.1469V33.387ZM47.9996 20.587V26.3469L49.9194 23.4667L47.9996 20.587ZM47.9996 46.187L49.9194 49.0667L47.9996 51.9469V46.187ZM48.2131 42.6667L50.1329 45.5406V39.787L48.2131 42.6667ZM48.2131 17.0667L50.1329 14.187V19.9469L48.2131 17.0667ZM47.9996 11.7333V13.5469L49.2069 11.7333H47.9996ZM39.4663 25.6V36.2667H33.0664V25.6H39.4663ZM30.9331 34.7734V25.6H24.5331V32.0406H27.7331C28.0128 32.0417 28.281 32.1526 28.48 32.349L30.9331 34.7734ZM22.3998 25.6V27.3781H15.9999V25.6H22.3998ZM9.15826 61.8667L6.39995 59.1083L3.64164 61.8667H9.15826ZM15.9999 61.8667V29.5115H22.3998V33.1115C22.3998 33.701 22.8774 34.1781 23.4665 34.1781H27.2946L31.2529 38.0922C31.4518 38.2885 31.7201 38.3995 31.9997 38.4H39.4663V61.8667H15.9999ZM49.9194 61.8667L47.9996 58.987V61.8667H49.9194ZM60.7995 60.8C60.2104 60.8 59.7328 60.3229 59.7328 59.7333C59.7328 59.1443 60.2104 58.6667 60.7995 58.6667C61.3886 58.6667 61.8662 59.1443 61.8662 59.7333C61.8662 60.3229 61.3886 60.8 60.7995 60.8ZM59.7328 55.4667C59.7328 54.8776 59.2552 54.4 58.6662 54.4C58.0771 54.4 57.5995 54.8776 57.5995 55.4667C57.5995 56.0563 58.0771 56.5333 58.6662 56.5333C59.2552 56.5333 59.7328 56.0563 59.7328 55.4667ZM56.5329 58.6667C57.1219 58.6667 57.5995 59.1443 57.5995 59.7333C57.5995 60.3229 57.1219 60.8 56.5329 60.8C55.9438 60.8 55.4662 60.3229 55.4662 59.7333C55.4662 59.1443 55.9438 58.6667 56.5329 58.6667ZM44.7996 8.53333V9.6H53.3329V2.13333H51.1996V7.46667C51.1996 8.05625 50.722 8.53333 50.1329 8.53333H44.7996ZM58.986 7.46667L61.8662 5.54688V7.46667H58.986ZM18.1332 36.2667H20.2665V38.4H18.1332V36.2667ZM22.3998 36.2667H24.5331V38.4H22.3998V36.2667ZM28.7998 36.2667H26.6664V38.4H28.7998V36.2667ZM18.1332 40.5333H20.2665V42.6667H18.1332V40.5333ZM24.5331 40.5333H22.3998V42.6667H24.5331V40.5333ZM26.6664 40.5333H28.7998V42.6667H26.6664V40.5333ZM33.0664 42.6667V40.5333H30.9331V42.6667H33.0664ZM35.1997 40.5333H37.333V42.6667H35.1997V40.5333ZM20.2665 44.8H18.1332V46.9333H20.2665V44.8ZM22.3998 44.8H24.5331V46.9333H22.3998V44.8ZM28.7998 44.8H26.6664V46.9333H28.7998V44.8ZM30.9331 46.9333V44.8H33.0664V46.9333H30.9331ZM37.333 44.8H35.1997V46.9333H37.333V44.8ZM18.1332 49.0667H20.2665V51.2H18.1332V49.0667ZM24.5331 49.0667H22.3998V51.2H24.5331V49.0667ZM26.6664 49.0667H28.7998V51.2H26.6664V49.0667ZM33.0664 51.2V49.0667H30.9331V51.2H33.0664ZM35.1997 49.0667H37.333V51.2H35.1997V49.0667ZM20.2665 53.3333H18.1332V55.4667H20.2665V53.3333ZM22.3998 53.3333H24.5331V55.4667H22.3998V53.3333ZM28.7998 53.3333H26.6664V55.4667H28.7998V53.3333ZM30.9331 53.3333H33.0664V55.4667H30.9331V53.3333ZM37.333 53.3333H35.1997V55.4667H37.333V53.3333ZM18.1332 57.6H20.2665V59.7333H18.1332V57.6ZM24.5331 57.6H22.3998V59.7333H24.5331V57.6ZM26.6664 57.6H28.7998V59.7333H26.6664V57.6ZM33.0664 57.6H30.9331V59.7333H33.0664V57.6ZM35.1997 57.6H37.333V59.7333H35.1997V57.6Z" fill="#333333"/>
</svg>
